<svg xmlns="http://www.w3.org/2000/svg" viewBox="0 0 303.3 99.8"><defs><style>.cls-1{fill:#707070;}</style></defs><title>logo</title><g id="圖層_2" data-name="圖層 2"><g id="圖層_1-2" data-name="圖層 1"><path class="cls-1" d="M73.3,6.5h35a3.2,3.2,0,0,0,3.2-3.2A3.3,3.3,0,0,0,108.3,0h-35A3.3,3.3,0,0,0,70,3.2a3.4,3.4,0,0,0,3.3,3.3Z"/><path class="cls-1" d="M96.6,58.4h-35a3.4,3.4,0,0,0-3,1.9H36.3a1.3,1.3,0,0,0,0,2.6H58.6a3.2,3.2,0,0,0,3,1.9h35a3.2,3.2,0,1,0,0-6.4Z"/><path class="cls-1" d="M61.6,93.4h-35a3.2,3.2,0,0,0,0,6.4h35a3.2,3.2,0,0,0,3.2-3.2A3.2,3.2,0,0,0,61.6,93.4Z"/><path class="cls-1" d="M71.3,16.2H82a3.2,3.2,0,0,0,3,1.9h35a3.2,3.2,0,0,0,3.2-3.2,3.3,3.3,0,0,0-3.2-3.2H85a3.4,3.4,0,0,0-3,1.9H71.3a1.3,1.3,0,1,0,0,2.6Z"/><path class="cls-1" d="M98.6,48.6H87.9a3.2,3.2,0,0,0-3-1.9h-35a3.4,3.4,0,0,0-3,1.9H36.3a1.3,1.3,0,1,0,0,2.6H47a3.2,3.2,0,0,0,3,1.9H85a3.4,3.4,0,0,0,3-1.9H98.6a1.3,1.3,0,0,0,1.3-1.3,1.4,1.4,0,0,0-1.3-1.3Z"/><path class="cls-1" d="M71.3,27.9H93.6a3.2,3.2,0,0,0,3,1.9h35a3.2,3.2,0,0,0,3.2-3.2,3.2,3.2,0,0,0-3.2-3.2h-35a3.4,3.4,0,0,0-3,1.9H71.3a1.3,1.3,0,1,0,0,2.6Z"/><path class="cls-1" d="M98.6,37H76.2a3.2,3.2,0,0,0-3-1.9h-35a3.2,3.2,0,1,0,0,6.4h35a3.4,3.4,0,0,0,3-1.9H98.5a1.3,1.3,0,0,0,1.3-1.3A1.2,1.2,0,0,0,98.6,37Z"/><path class="cls-1" d="M63.5,83.6H52.9a3.2,3.2,0,0,0-3-1.9h-35a3.2,3.2,0,0,0-3.2,3.2,3.3,3.3,0,0,0,3.2,3.2h35a3.4,3.4,0,0,0,3-1.9H63.5a1.3,1.3,0,0,0,1.3-1.3,1.3,1.3,0,0,0-1.3-1.3Z"/><path class="cls-1" d="M63.5,72H41.2a3.2,3.2,0,0,0-3-1.9H3.2A3.2,3.2,0,0,0,0,73.3a3.2,3.2,0,0,0,3.2,3.2h35a3.4,3.4,0,0,0,3-1.9H63.5a1.3,1.3,0,0,0,1.3-1.3A1.2,1.2,0,0,0,63.5,72Z"/><path class="cls-1" d="M178.9,54.9h2.7a.2.2,0,0,1,.2.2v9.6l.3.2h1.8l.2-.2V55.1c0-.1.1-.2.3-.2h2.7l.2-.2V53.1a.2.2,0,0,0-.2-.2h-8.3a.2.2,0,0,0-.2.2v1.6Z"/><path class="cls-1" d="M238.2,52.8h-1.9a.2.2,0,0,0-.2.2v6.4c0,.2-.3.3-.5.1l-4.3-6.7h-2a.2.2,0,0,0-.2.2V64.6a.2.2,0,0,0,.2.2h1.9a.2.2,0,0,0,.2-.2V58.2c0-.2.3-.3.5-.1l4.3,6.7c0,.1.1.1.2.1h1.8a.2.2,0,0,0,.2-.2V53C238.5,52.9,238.4,52.8,238.2,52.8Z"/><path class="cls-1" d="M199.9,64.8a.2.2,0,0,0,.2.2h2c.2,0,.3-.2.2-.3L198,53a.2.2,0,0,0-.2-.2h-2c-.2,0-.3.2-.2.3Z"/><path class="cls-1" d="M208.1,64.8l1.2-3.1c.1-.2.4-.2.4,0l1.2,3.1a.2.2,0,0,0,.2.2h2.2a.2.2,0,0,0,.2-.2l4.3-11.7c.1-.2-.2-.3-.3-.3h-2c-.1,0-.3.1-.3.2l-2.9,8c-.1.2-.4.2-.4,0l-1.1-3.3v-.2l1.5-4.3c.1-.2-.1-.3-.2-.3H210a.2.2,0,0,0-.2.2l-2.9,8.1c-.1.2-.4.2-.4,0l-2.9-8.1c0-.1-.1-.2-.3-.2h-2c-.2,0-.4.2-.2.3l4.2,11.7.2.2h2.3q.3-.1.3-.3Z"/><path class="cls-1" d="M192,58l2.4,6.7.2.2h2c.2,0,.3-.2.2-.3l-4.2-11.5a.2.2,0,0,0-.2-.2h-1.5a.2.2,0,0,0-.2.2l-4.2,11.5c-.1.2.1.3.3.3h1.9a.2.2,0,0,0,.2-.2l2.4-6.7C191.6,57.7,191.9,57.7,192,58Z"/><path class="cls-1" d="M224.7,64.8h2c.2,0,.3-.2.2-.3L222.8,53a.2.2,0,0,0-.2-.2h-1.5a.2.2,0,0,0-.2.2l-4.2,11.5c-.1.2.1.3.2.3h2a.2.2,0,0,0,.2-.2l2.4-6.7a.3.3,0,0,1,.5,0l2.4,6.7C224.5,64.8,224.6,64.8,224.7,64.8Z"/><path class="cls-1" d="M126.3,58.4a47.2,47.2,0,0,0-2.7-3.9V67.7h-2.4V55.5a25.6,25.6,0,0,1-4,7.4,18.3,18.3,0,0,0-1.3-2.4,26.4,26.4,0,0,0,4.9-9.6h-4.2V48.5h4.6V42.7h2.4v5.8h3.7v2.4h-3.7v.5a62,62,0,0,1,4.3,4.8Zm9.9-7.5c1.2,4,3.1,8.1,5.2,10.4a7.3,7.3,0,0,0-1.9,2,31.4,31.4,0,0,1-3.9-8V67.7H133V55.5a25.5,25.5,0,0,1-5.1,8.3,11.4,11.4,0,0,0-1.5-2.3c2.6-2.4,4.9-6.6,6.2-10.6h-4.2V48.5H133V42.7h2.6v5.8h5v2.4Z"/><path class="cls-1" d="M171.6,45.5V67h-2.8V64.9H153.6v2.2H151V45.5Zm-2.8,16.8V48H153.6V62.3Z"/><path class="cls-1" d="M127.9,98.5l-3.4-1.8a27.8,27.8,0,0,1-7.7,2.2,4.7,4.7,0,0,0-.9-1.7,28.1,28.1,0,0,0,6.2-1.5l-4-1.4a7.6,7.6,0,0,0,1.3-1.7l-2.8.2-.2-1.8,4.2-.2,1.1-1.9h-4.2V84.3h5v-1h-4.2V80.4h-2V78.5h2V75.8h4.2V74h2v1.8h4.4v2.7h1.9v1.9h-1.9v2.9h-4.4v1h5.1v4.6H124a16.2,16.2,0,0,1-1,1.8l3.7-.2h0V89.4h2v1h1.1V92h-1.3a5.8,5.8,0,0,1-2.1,3.4l3.1,1.6Zm-8.3-11.2h2.9V85.9h-2.9Zm.8-9.8v1.2h2.1V77.5Zm2.1,4.1V80.3h-2.1v1.3Zm-.6,10.9a3.6,3.6,0,0,0-.7,1l3.1,1.1a5,5,0,0,0,2.1-2.4Zm2.6-15v1.2h2.2V77.5Zm2.2,4.1V80.3h-2.2v1.3Zm-2.2,4.3v1.4h2.9V85.9Zm14.7-4.6a38.1,38.1,0,0,1-2.4,10.3,11.9,11.9,0,0,0,4.5,5.3,5.2,5.2,0,0,0-1.5,1.8,12.8,12.8,0,0,1-4.1-4.8,15.2,15.2,0,0,1-4.9,5.2,10.2,10.2,0,0,0-1.3-1.8,12.8,12.8,0,0,0,5-5.8,44.9,44.9,0,0,1-1.8-6.4,15.8,15.8,0,0,1-1.3,2.6l-1.6-1.6c1.8-2.9,2.8-7.3,3.3-11.9l2.2.3c-.2,1.5-.5,3.1-.8,4.6H141v2.2Zm-5.2,0a47.9,47.9,0,0,0,1.6,7.4,36.1,36.1,0,0,0,1.4-7.4Z"/><path class="cls-1" d="M154.2,88.6v7.7c0,1.2-.2,1.9-.9,2.3a10.1,10.1,0,0,1-3.5.4,11.9,11.9,0,0,0-.7-2.3h2.4c.3,0,.5-.1.5-.4v-7l-2.9.9-.6-2.5,3.5-.9V81.7h-3.1V79.3H152V74h2.2v5.3h2.4v2.4h-2.4v4.4l2.4-.7.4,2.3Zm5.4-2.1c0,3.9-.4,9.1-2.9,12.5a8,8,0,0,0-1.9-1.3c2.3-3.2,2.6-7.7,2.6-11.2V78.7h6V74.1h2.4v1.5h6.3v1.8h-6.3v1.3h6.1l1.6.3c-.4,1.4-.9,3-1.3,4l-1.9-.4c.2-.5.4-1.3.6-2h-5.5v1.3l4-.4.2,1.5-4.2.4h0c0,.6,0,.9.7.9h3.5l2-.2c.1.6.1,1.1.2,1.6h-6.1c-1.8,0-2.3-.6-2.4-2l-3,.3-.2-1.8,3.2-.3V80.6h-3.7Zm13.9,3.8-2.9,1.4a7.9,7.9,0,0,0,3.5,4.9,11.4,11.4,0,0,0-1.5,1.6c-1.7-1.1-2.9-3.4-3.6-5.8l-1.1.4c.8,2.2.5,4.6-.5,5.4a2.4,2.4,0,0,1-2.1.8H164a4.3,4.3,0,0,0-.6-1.8H165a1.3,1.3,0,0,0,1-.4,3.7,3.7,0,0,0,.4-2.4,24.8,24.8,0,0,1-6.5,3.7,7.1,7.1,0,0,0-1-1.4A20.1,20.1,0,0,0,166,93l-.3-.8a27.3,27.3,0,0,1-5.4,2.7,6,6,0,0,0-.9-1.3,23.6,23.6,0,0,0,5.6-2.4,2.3,2.3,0,0,0-.7-.7,18.6,18.6,0,0,1-3.7,1.4l-.8-1.3a20.2,20.2,0,0,0,5.5-2.1h-5.1V86.8h13.2v1.7h-5.7l-1.9,1.2a8,8,0,0,1,1.5,1.8,50.9,50.9,0,0,0,4.7-2.4Z"/><path class="cls-1" d="M187,88.7V96c0,1.2-.3,1.9-1,2.3a7.3,7.3,0,0,1-3.4.5,10.9,10.9,0,0,0-.7-2.4h2.3c.3,0,.4-.1.4-.4V89.6l-2.4.9-.7-2.4,3.1-1V81.7h-2.8V79.3h2.8V74.1H187v5.2h2v2.4h-2v4.5l1.9-.7.4,2.3Zm13.1,1a18,18,0,0,0,6.4,5.6,6.5,6.5,0,0,0-1.7,2,20,20,0,0,1-6.2-6.1V99h-2.5V91.4a16.9,16.9,0,0,1-6.2,6,10,10,0,0,0-1.6-1.9,15.5,15.5,0,0,0,6.4-5.8h-4.9V87.4h6.3V84.6h2.5v2.8h7.3v2.3Zm-3.4-11.3c-.3,3.8-1.3,5.9-6.1,7a5,5,0,0,0-1.3-1.9c4.1-.8,4.9-2.2,5.1-5.1Zm-4.5,2.2h-2.3V75.4h15.6v5H203V77.6H192.2Zm11.9,1.9h1.6c.1.6.1,1.6.2,2.1l-1.8.2h-2.7c-2.3,0-2.8-.8-2.8-3.1V78.3h2.2v3.3c0,.8.1.9.6.9Z"/><path class="cls-1" d="M222.9,94a32,32,0,0,1-6.5,4.6,7.7,7.7,0,0,0-1.9-1.7,24.4,24.4,0,0,0,6.1-3.8Zm5.3-2.1v4.4c0,1.2-.3,1.8-1.3,2.2a12.1,12.1,0,0,1-4.3.4,15.7,15.7,0,0,0-.9-2.3h3.5c.4,0,.5-.1.5-.4V92c-7.5.5-8.6.6-9.3.9a12.8,12.8,0,0,0-.7-2.1,15.9,15.9,0,0,0,3.7-1.1l4.2-1.8a29.5,29.5,0,0,0-5.3.5c-.1-.4-.4-1.5-.6-2.1l1.9-.7a37,37,0,0,0,4.7-2.8h-7.2v3.1h-2.4V80.6h10.5V78.5H215.1V76.3h10.1V74h2.6v2.3h10.1v2.2H227.8v2.1h10.6v5.3h-2.5V82.8h-9.6l.7.5a28.5,28.5,0,0,1-5.1,3l5.3-.3a24.6,24.6,0,0,0,3.9-2.2l1.8,1.5a78,78,0,0,1-10.5,5.1l10.3-.6-1.9-1.7,1.8-1.1a38.7,38.7,0,0,1,5.4,5.2l-1.9,1.4a14.2,14.2,0,0,0-1.7-2.1Zm3.7,1a46.7,46.7,0,0,1,6.6,4.2l-2.1,1.4a44.3,44.3,0,0,0-6.4-4.4Z"/><path class="cls-1" d="M271.3,89.7H260.4V99h-2.6V89.7H247V87.2h10.8V78.3h-9.4V75.8h21.3v2.5h-9.3v8.9h10.9ZM252.5,79.4a30.5,30.5,0,0,1,2.4,5.9l-2.4.8a30.4,30.4,0,0,0-2.3-6Zm10.5,6a37.5,37.5,0,0,0,2.7-6.1l2.7.7a56.6,56.6,0,0,1-3.2,6.1Z"/><path class="cls-1" d="M296.2,76.8a50,50,0,0,1,7.1,7.9l-2.1,1.6a23.9,23.9,0,0,0-1.6-2.2c-14.9.8-16.7.8-17.9,1.2a16.8,16.8,0,0,0-.8-2.4,5.1,5.1,0,0,0,2.2-1.6,41.3,41.3,0,0,0,6-7.5l2.6,1.1a60.4,60.4,0,0,1-6.5,7.5l12.6-.5c-1.2-1.3-2.4-2.6-3.6-3.7ZM282.9,87.4h17.6V98.9h-2.6V97.5H285.5V99h-2.6Zm2.6,2.4v5.3h12.4V89.8Z"/></g></g></svg>